<svg width="25" height="25" viewBox="0 0 25 25" fill="none" xmlns="http://www.w3.org/2000/svg">
<path d="M0 21.875C0 23.6009 1.39911 25 3.125 25H21.875C23.6009 25 25 23.6009 25 21.875V3.125C25 1.39911 23.6009 0 21.875 0H3.125C1.39911 0 0 1.39911 0 3.125V21.875ZM7.03125 11.7188H16.0826L12.7288 8.36493C12.4237 8.05983 12.4237 7.56517 12.7288 7.26007C13.0339 6.95498 13.5286 6.95498 13.8337 7.26007L18.5212 11.9476C18.8263 12.2527 18.8263 12.7473 18.5212 13.0524L13.8337 17.7399C13.5286 18.045 13.0339 18.045 12.7288 17.7399C12.4237 17.4348 12.4237 16.9402 12.7288 16.6351L16.0826 13.2812H7.03125C6.59978 13.2812 6.25 12.9315 6.25 12.5C6.25 12.0685 6.59978 11.7188 7.03125 11.7188Z" fill="#0DCAF0"/>
</svg>

