<svg width="25" height="25" viewBox="0 0 25 25" fill="none" xmlns="http://www.w3.org/2000/svg">
<path d="M25 21.875C25 23.6009 23.6009 25 21.875 25H3.125C1.39911 25 0 23.6009 0 21.875V3.125C0 1.39911 1.39911 0 3.125 0H21.875C23.6009 0 25 1.39911 25 3.125V21.875ZM17.9688 11.7188H8.91736L12.2712 8.36493C12.5763 8.05983 12.5763 7.56517 12.2712 7.26007C11.9661 6.95498 11.4714 6.95498 11.1663 7.26007L6.47882 11.9476C6.17373 12.2527 6.17373 12.7473 6.47882 13.0524L11.1663 17.7399C11.4714 18.045 11.9661 18.045 12.2712 17.7399C12.5763 17.4348 12.5763 16.9402 12.2712 16.6351L8.91736 13.2812H17.9688C18.4002 13.2812 18.75 12.9315 18.75 12.5C18.75 12.0685 18.4002 11.7188 17.9688 11.7188Z" fill="#0DCAF0"/>
</svg>

