<svg width="23" height="23" viewBox="0 0 23 23" fill="none" xmlns="http://www.w3.org/2000/svg">
<path d="M23 20.125C23 21.7128 21.7128 23 20.125 23H2.875C1.28718 23 0 21.7128 0 20.125V2.875C0 1.28718 1.28718 0 2.875 0H20.125C21.7128 0 23 1.28718 23 2.875V20.125ZM16.5312 10.7812H8.20397L11.2895 7.69573C11.5702 7.41504 11.5702 6.95996 11.2895 6.67927C11.0088 6.39858 10.5537 6.39858 10.273 6.67927L5.96052 10.9918C5.67983 11.2725 5.67983 11.7275 5.96052 12.0082L10.273 16.3207C10.5537 16.6014 11.0088 16.6014 11.2895 16.3207C11.5702 16.04 11.5702 15.585 11.2895 15.3043L8.20397 12.2188H16.5312C16.9282 12.2188 17.25 11.897 17.25 11.5C17.25 11.103 16.9282 10.7812 16.5312 10.7812Z" fill="black"/>
</svg>
