<svg width="23" height="23" viewBox="0 0 23 23" fill="none" xmlns="http://www.w3.org/2000/svg">
<path d="M0 20.125C0 21.7128 1.28718 23 2.875 23H20.125C21.7128 23 23 21.7128 23 20.125V2.875C23 1.28718 21.7128 0 20.125 0H2.875C1.28718 0 0 1.28718 0 2.875V20.125ZM6.46875 10.7812H14.796L11.7105 7.69573C11.4298 7.41504 11.4298 6.95996 11.7105 6.67927C11.9912 6.39858 12.4463 6.39858 12.727 6.67927L17.0395 10.9918C17.3202 11.2725 17.3202 11.7275 17.0395 12.0082L12.727 16.3207C12.4463 16.6014 11.9912 16.6014 11.7105 16.3207C11.4298 16.04 11.4298 15.585 11.7105 15.3043L14.796 12.2188H6.46875C6.0718 12.2188 5.75 11.897 5.75 11.5C5.75 11.103 6.0718 10.7812 6.46875 10.7812Z" fill="black"/>
</svg>
